<svg id="svg" version="1.1" xmlns="http://www.w3.org/2000/svg" xmlns:xlink="http://www.w3.org/1999/xlink" width="400" height="400" viewBox="0, 0, 400,400"><g id="svgg"><path id="path0" d="M0.000 200.000 L 0.000 400.000 200.000 400.000 L 400.000 400.000 400.000 200.000 L 400.000 0.000 200.000 0.000 L 0.000 0.000 0.000 200.000 M253.521 84.668 C 254.650 85.689,254.714 85.907,254.796 89.061 L 254.883 92.380 252.523 93.944 C 251.225 94.804,248.361 96.641,246.160 98.025 C 243.958 99.410,241.995 100.737,241.798 100.976 C 241.586 101.230,241.537 104.751,241.679 109.494 L 241.920 117.578 242.995 117.578 C 248.864 117.578,254.679 124.027,255.007 130.898 L 255.171 134.328 250.244 136.695 C 247.534 137.997,245.232 139.063,245.128 139.063 C 244.960 139.063,238.962 141.783,232.128 144.959 C 230.785 145.583,229.602 146.094,229.501 146.094 C 229.314 146.094,228.452 146.473,219.240 150.607 L 214.066 152.930 214.064 156.543 C 214.063 158.530,214.179 160.156,214.321 160.156 C 214.561 160.156,220.456 157.596,225.977 155.095 C 227.266 154.511,228.936 153.799,229.688 153.514 C 230.439 153.228,231.230 152.863,231.445 152.703 C 231.660 152.543,234.736 151.158,238.281 149.626 C 241.826 148.093,245.654 146.408,246.788 145.881 C 247.922 145.353,248.920 144.922,249.007 144.922 C 249.093 144.922,250.322 144.386,251.737 143.731 C 254.826 142.301,255.093 142.411,254.917 145.035 C 254.841 146.154,254.759 150.170,254.734 153.959 L 254.688 160.847 252.441 161.737 C 251.206 162.227,250.016 162.762,249.798 162.927 C 249.579 163.091,247.031 164.264,244.134 165.533 C 234.330 169.826,222.467 175.050,221.289 175.593 C 220.645 175.889,218.975 176.601,217.578 177.173 C 210.439 180.100,208.905 181.985,211.078 185.157 C 212.002 186.504,214.527 186.934,215.820 185.964 C 216.035 185.803,217.002 185.360,217.969 184.981 C 218.936 184.602,220.166 184.108,220.703 183.883 C 221.240 183.658,221.868 183.433,222.097 183.383 C 222.327 183.334,223.469 182.852,224.636 182.314 C 225.803 181.775,227.900 180.859,229.297 180.279 C 230.693 179.699,232.413 178.977,233.119 178.675 C 235.542 177.637,236.695 178.099,235.156 179.492 C 234.713 179.893,234.375 180.004,234.375 179.748 C 234.375 179.500,234.164 179.297,233.906 179.297 C 233.542 179.297,233.542 179.401,233.906 179.766 C 234.650 180.510,234.458 180.859,233.301 180.865 C 232.495 180.870,232.368 180.961,232.794 181.230 C 233.216 181.497,232.889 181.708,231.525 182.052 C 229.609 182.534,229.048 183.206,230.566 183.200 C 231.679 183.195,235.259 181.483,234.902 181.126 C 234.755 180.979,234.997 180.859,235.440 180.859 C 235.882 180.859,236.353 180.577,236.485 180.233 C 236.617 179.888,236.944 179.689,237.210 179.791 C 238.114 180.135,239.410 179.374,239.347 178.537 C 239.300 177.902,239.018 177.734,238.003 177.734 C 236.032 177.734,236.468 177.148,239.160 176.179 C 240.503 175.695,241.865 175.083,242.188 174.819 C 243.803 173.492,244.027 173.734,244.278 177.083 C 245.270 190.294,245.041 194.531,243.334 194.531 C 243.171 194.531,241.748 195.131,240.172 195.865 C 236.106 197.756,230.123 200.393,222.656 203.584 C 212.166 208.067,210.938 208.886,210.938 211.388 C 210.938 212.650,212.754 214.844,213.799 214.844 C 214.586 214.844,227.636 209.509,235.352 206.033 C 238.916 204.427,243.931 202.344,244.232 202.344 C 244.426 202.344,244.500 204.296,244.400 206.738 C 244.301 209.155,244.209 212.100,244.195 213.281 L 244.171 215.430 242.105 216.369 C 240.969 216.886,238.369 218.095,236.328 219.056 C 234.287 220.016,231.562 221.205,230.273 221.697 C 228.984 222.189,226.053 223.485,223.759 224.577 C 221.465 225.669,219.400 226.563,219.169 226.563 C 218.939 226.563,218.750 226.738,218.750 226.953 C 218.750 227.168,218.519 227.344,218.237 227.344 C 217.956 227.344,217.033 227.672,216.187 228.074 C 213.295 229.446,193.855 238.122,189.648 239.919 C 188.145 240.561,184.629 242.108,181.836 243.357 C 179.043 244.607,171.484 247.936,165.039 250.755 C 158.594 253.575,151.341 256.844,148.921 258.019 C 146.502 259.194,144.349 260.156,144.136 260.156 C 143.888 260.156,143.750 254.763,143.750 245.094 L 143.750 230.032 146.582 228.713 C 148.140 227.988,149.142 227.383,148.809 227.369 C 148.476 227.355,148.036 227.496,147.832 227.681 C 147.628 227.867,146.934 228.200,146.289 228.422 C 145.645 228.645,144.843 228.938,144.508 229.075 C 143.976 229.292,143.889 228.617,143.814 223.691 L 143.728 218.059 145.176 217.204 C 149.584 214.604,151.920 214.330,152.795 216.311 L 153.441 217.773 153.478 215.393 C 153.527 212.309,155.327 211.157,167.188 206.622 C 167.939 206.334,168.643 205.996,168.750 205.871 C 168.857 205.745,169.648 205.331,170.508 204.951 C 171.367 204.571,172.510 203.926,173.047 203.518 L 174.023 202.776 173.289 201.409 C 171.235 197.582,170.934 197.649,151.953 206.162 C 148.623 207.656,145.526 208.994,145.070 209.137 C 140.530 210.556,137.372 213.631,135.195 218.750 C 134.882 219.484,134.802 218.176,134.870 213.477 C 135.004 204.261,135.622 203.497,146.989 198.496 L 153.516 195.624 153.516 191.953 C 153.516 187.492,154.159 187.570,146.067 191.048 C 139.646 193.807,137.083 195.461,135.981 197.559 C 134.981 199.463,134.704 198.492,134.981 194.043 C 135.447 186.550,136.000 185.985,147.656 181.079 C 150.557 179.858,154.688 178.097,156.836 177.164 C 158.984 176.232,164.082 174.023,168.164 172.256 C 172.246 170.489,177.717 168.107,180.321 166.963 C 182.925 165.820,186.704 164.196,188.719 163.355 C 192.513 161.772,200.223 158.366,207.536 155.041 C 209.855 153.987,211.890 153.125,212.058 153.125 C 213.355 153.125,214.601 150.264,214.042 148.570 C 213.129 145.804,211.720 145.849,205.273 148.852 C 202.480 150.153,197.734 152.275,194.727 153.568 C 191.719 154.861,188.555 156.253,187.695 156.660 C 186.836 157.068,183.408 158.567,180.078 159.990 C 176.748 161.414,169.717 164.428,164.453 166.688 C 159.189 168.949,154.268 171.022,153.516 171.296 C 152.764 171.570,150.428 172.603,148.325 173.592 C 146.222 174.581,144.332 175.391,144.126 175.391 C 143.788 175.391,143.400 134.480,143.687 129.102 C 143.903 125.056,146.889 121.018,151.172 118.981 L 153.711 117.773 192.933 117.670 L 232.156 117.567 231.914 107.283 L 231.671 96.998 232.926 95.811 C 233.615 95.158,237.677 92.142,241.951 89.109 C 250.614 82.962,251.328 82.688,253.521 84.668 M167.758 87.275 C 173.173 90.449,172.614 99.358,166.847 101.789 C 163.978 102.998,159.252 102.250,157.405 100.295 C 150.550 93.040,159.147 82.229,167.758 87.275 M215.079 88.888 C 215.670 91.243,214.640 93.750,213.080 93.750 C 211.966 93.750,211.719 93.104,211.719 90.202 L 211.719 87.891 213.274 87.891 C 214.616 87.891,214.863 88.027,215.079 88.888 M191.326 93.201 C 192.131 94.641,190.852 96.484,189.046 96.484 C 188.191 96.484,187.379 94.522,187.827 93.539 C 188.353 92.384,190.739 92.153,191.326 93.201 M210.755 93.144 C 211.500 93.455,212.109 93.963,212.109 94.272 C 212.109 94.597,212.602 94.906,213.281 95.005 C 214.292 95.154,214.453 95.054,214.453 94.282 C 214.453 93.187,215.500 92.578,217.383 92.578 C 219.421 92.578,220.313 93.173,220.313 94.531 C 220.313 95.952,219.414 96.484,217.018 96.484 L 215.234 96.484 215.234 98.073 C 215.234 100.277,214.670 101.172,213.281 101.172 C 211.475 101.172,210.748 98.843,211.739 96.236 C 212.135 95.194,212.123 95.179,211.415 95.819 C 209.691 97.380,206.120 96.511,206.120 94.531 C 206.120 92.556,208.000 91.993,210.755 93.144 M179.297 123.720 C 176.902 124.153,175.995 126.126,177.380 127.887 L 178.198 128.926 198.433 128.819 C 220.880 128.699,220.313 128.769,220.313 126.140 C 220.313 123.411,220.476 123.431,199.264 123.491 C 188.819 123.520,179.834 123.623,179.297 123.720 M136.403 143.315 C 137.675 144.739,137.793 146.093,136.816 148.041 C 134.835 151.991,129.125 150.836,128.623 146.385 C 128.155 142.236,133.540 140.112,136.403 143.315 M211.133 162.409 C 210.059 162.969,206.648 164.535,203.555 165.889 C 195.387 169.464,195.201 169.571,194.345 171.169 L 193.572 172.612 194.480 173.578 C 195.408 174.566,198.298 174.861,199.512 174.092 C 199.786 173.917,200.000 173.958,200.000 174.183 C 200.000 174.404,200.278 174.478,200.619 174.347 C 201.105 174.161,201.128 174.043,200.730 173.796 C 200.361 173.568,200.485 173.385,201.185 173.125 C 203.414 172.299,203.362 172.329,202.637 172.296 C 202.226 172.278,201.953 171.957,201.953 171.492 C 201.953 170.752,202.263 170.595,204.492 170.207 C 204.922 170.132,205.229 169.862,205.176 169.606 C 205.115 169.315,205.599 169.141,206.468 169.141 C 207.297 169.141,207.761 168.983,207.617 168.749 C 207.364 168.341,208.683 167.698,210.822 167.187 C 211.651 166.988,212.125 167.037,212.224 167.330 C 212.464 168.040,213.627 165.470,213.808 163.830 C 214.112 161.070,213.908 160.961,211.133 162.409 M209.545 169.880 C 209.663 170.072,209.301 170.344,208.740 170.485 C 208.179 170.626,207.800 170.821,207.898 170.919 C 208.219 171.240,210.552 170.246,210.328 169.884 C 210.208 169.690,209.934 169.531,209.720 169.531 C 209.505 169.531,209.426 169.688,209.545 169.880 M129.090 171.081 C 131.360 173.589,127.768 177.511,125.051 175.491 C 123.756 174.529,123.437 172.174,124.449 171.055 C 125.383 170.023,128.146 170.038,129.090 171.081 M241.276 176.823 C 240.346 177.753,241.635 178.040,242.796 177.161 C 243.527 176.609,243.517 176.587,242.546 176.575 C 241.991 176.568,241.419 176.680,241.276 176.823 M269.444 177.561 C 270.536 178.326,270.625 180.456,269.603 181.380 C 268.282 182.576,266.577 182.628,265.456 181.507 C 262.910 178.961,266.447 175.462,269.444 177.561 M254.410 182.030 C 254.522 182.459,254.517 184.228,254.398 185.961 L 254.182 189.113 252.384 189.908 C 251.395 190.345,250.146 190.882,249.609 191.100 C 249.072 191.319,248.328 191.653,247.955 191.842 C 246.302 192.683,246.094 192.357,246.094 188.928 C 246.094 185.210,246.152 185.121,249.609 183.501 C 250.791 182.947,252.109 182.220,252.539 181.884 C 253.600 181.056,254.167 181.100,254.410 182.030 M254.213 202.227 L 254.102 206.017 251.758 206.851 C 247.486 208.370,245.517 208.343,247.559 206.794 C 247.980 206.474,248.054 206.270,247.752 206.262 C 245.644 206.209,248.791 200.036,250.948 199.991 C 251.179 199.987,251.807 199.639,252.344 199.219 C 254.153 197.803,254.335 198.097,254.213 202.227 M268.732 203.299 C 269.491 204.213,269.079 205.645,268.013 205.796 C 266.516 206.008,265.894 204.474,267.020 203.348 C 267.781 202.588,268.134 202.577,268.732 203.299 M240.625 212.496 C 240.088 212.672,238.770 213.238,237.695 213.755 C 236.621 214.271,235.313 214.872,234.789 215.091 C 234.265 215.309,234.014 215.597,234.231 215.732 C 234.449 215.866,235.117 215.721,235.717 215.410 C 236.317 215.098,237.217 214.844,237.718 214.844 C 238.814 214.844,241.251 213.468,241.554 212.677 C 241.674 212.365,241.734 212.124,241.687 212.143 C 241.640 212.161,241.162 212.320,240.625 212.496 M193.481 216.390 C 191.229 217.759,190.814 219.559,192.364 221.232 C 193.417 222.368,194.531 222.598,194.531 221.680 C 194.531 221.357,194.707 221.094,194.922 221.094 C 195.137 221.094,195.313 221.357,195.313 221.680 C 195.313 222.002,195.480 222.266,195.685 222.266 C 196.152 222.266,198.047 220.397,198.047 219.937 C 198.047 219.749,198.234 219.534,198.462 219.458 C 199.108 219.243,198.231 217.323,197.185 216.663 C 195.608 215.667,194.770 215.606,193.481 216.390 M231.641 216.573 C 229.548 217.373,228.131 218.133,228.128 218.457 C 228.124 218.833,228.691 218.836,229.065 218.461 C 229.224 218.302,230.255 217.890,231.356 217.545 C 232.457 217.200,233.426 216.715,233.508 216.467 C 233.698 215.899,233.352 215.918,231.641 216.573 M268.372 223.249 C 272.149 225.202,270.671 231.250,266.417 231.250 C 263.468 231.250,261.719 229.798,261.719 227.350 C 261.719 223.793,265.234 221.626,268.372 223.249 M150.833 226.419 C 150.110 226.734,149.610 227.084,149.723 227.197 C 149.939 227.413,152.344 226.284,152.344 225.967 C 152.344 225.745,152.454 225.712,150.833 226.419 M168.199 227.764 C 166.318 230.000,167.816 233.790,170.159 232.723 C 170.863 232.402,171.230 232.402,171.553 232.725 C 172.348 233.520,174.288 230.992,174.159 229.327 C 173.942 226.506,170.104 225.500,168.199 227.764 M244.141 236.523 C 244.141 239.424,244.009 241.776,243.848 241.751 C 241.912 241.445,240.625 241.854,240.625 242.773 C 240.625 243.652,240.469 243.750,239.063 243.750 L 237.500 243.750 237.500 245.313 L 237.500 246.875 235.938 246.875 L 234.375 246.875 234.375 248.438 L 234.375 250.000 232.813 250.000 L 231.250 250.000 231.250 251.563 C 231.250 253.013,231.172 253.125,230.156 253.125 C 228.768 253.125,228.125 253.768,228.125 255.156 C 228.125 256.172,228.013 256.250,226.563 256.250 L 225.000 256.250 225.000 259.375 L 225.000 262.500 223.665 262.500 C 221.561 262.500,221.094 262.827,221.094 264.300 C 221.094 265.453,220.967 265.625,220.117 265.625 C 219.458 265.625,219.132 265.847,219.113 266.309 C 219.090 266.893,219.037 266.879,218.750 266.211 C 218.490 265.605,218.408 265.801,218.387 267.082 C 218.363 268.509,218.226 268.769,217.383 268.980 C 216.581 269.181,216.406 269.463,216.406 270.550 C 216.406 271.762,216.306 271.875,215.234 271.875 C 214.108 271.875,214.063 271.943,214.063 273.607 C 214.063 274.560,213.893 275.785,213.686 276.330 C 213.386 277.118,213.446 277.401,213.979 277.711 C 214.521 278.027,214.537 278.109,214.063 278.143 C 213.740 278.166,213.178 278.242,212.813 278.313 C 212.440 278.385,211.874 278.019,211.518 277.475 C 210.875 276.495,209.375 274.871,209.375 275.156 C 209.375 275.242,208.786 274.759,208.066 274.082 C 203.061 269.378,197.159 269.087,190.430 273.213 C 188.800 274.212,186.639 277.181,185.920 279.410 C 185.588 280.438,185.236 281.200,185.139 281.101 C 184.904 280.865,185.032 284.859,185.334 287.204 C 185.743 290.371,190.129 297.268,196.153 304.213 C 196.765 304.919,197.266 305.666,197.266 305.873 C 197.266 306.572,159.566 306.359,156.822 305.644 C 145.244 302.628,142.614 295.773,144.089 272.462 L 144.336 268.557 146.875 267.287 C 148.271 266.589,150.205 265.724,151.172 265.365 C 152.139 265.007,153.293 264.391,153.736 263.997 C 154.180 263.604,154.927 263.281,155.396 263.281 C 155.866 263.281,156.250 263.105,156.250 262.891 C 156.250 262.676,156.492 262.500,156.787 262.500 C 157.318 262.500,161.278 260.898,162.592 260.151 C 162.965 259.939,163.555 259.766,163.902 259.766 C 164.249 259.766,165.350 259.342,166.349 258.825 C 171.446 256.184,174.889 255.003,175.104 255.822 C 175.250 256.382,175.598 256.457,177.190 256.274 C 179.511 256.008,179.398 255.247,177.051 255.337 C 175.158 255.409,175.034 255.297,176.270 254.633 C 177.931 253.739,179.997 253.547,179.799 254.305 C 179.685 254.737,179.909 255.045,180.437 255.183 C 180.884 255.300,181.250 255.690,181.250 256.049 C 181.250 256.578,181.483 256.652,182.471 256.435 C 183.319 256.248,183.610 256.298,183.424 256.599 C 183.090 257.140,184.724 257.173,185.547 256.641 C 185.938 256.388,185.970 256.260,185.645 256.256 C 185.376 256.253,185.156 256.093,185.156 255.902 C 185.156 255.388,187.190 254.967,187.471 255.422 C 187.622 255.666,188.218 255.566,189.065 255.156 C 190.106 254.652,190.252 254.469,189.699 254.362 C 189.303 254.286,188.787 254.416,188.552 254.651 C 188.061 255.142,187.499 255.214,187.503 254.785 C 187.510 254.133,189.542 253.536,190.326 253.956 C 190.875 254.249,191.223 254.245,191.526 253.942 C 191.761 253.708,192.296 253.516,192.715 253.516 C 193.134 253.516,195.103 252.725,197.091 251.758 C 199.078 250.791,200.946 250.000,201.242 250.000 C 201.537 250.000,202.126 249.759,202.550 249.464 C 202.974 249.170,204.551 248.486,206.055 247.944 C 207.559 247.402,209.404 246.691,210.156 246.364 C 210.908 246.036,212.227 245.481,213.086 245.131 C 213.945 244.780,214.954 244.326,215.327 244.122 C 215.700 243.917,216.200 243.750,216.439 243.750 C 216.678 243.750,218.333 243.047,220.117 242.188 C 221.901 241.328,223.539 240.625,223.758 240.625 C 223.977 240.625,224.653 240.364,225.261 240.044 C 226.570 239.357,228.741 238.431,233.008 236.739 C 237.529 234.946,243.750 231.956,243.750 231.576 C 243.750 231.397,243.838 231.250,243.945 231.250 C 244.053 231.250,244.141 233.623,244.141 236.523 M126.208 234.649 C 126.686 235.952,125.451 237.307,124.095 236.967 C 122.878 236.661,122.300 235.080,123.068 234.155 C 123.805 233.267,125.817 233.583,126.208 234.649 M184.180 253.125 C 184.047 253.340,183.607 253.516,183.203 253.516 C 182.799 253.516,182.358 253.694,182.223 253.913 C 182.088 254.131,181.814 254.208,181.614 254.085 C 180.886 253.635,181.279 253.171,182.520 253.017 C 183.218 252.930,183.931 252.831,184.105 252.797 C 184.279 252.763,184.312 252.910,184.180 253.125 M179.688 257.798 C 178.845 258.055,178.805 258.136,179.395 258.386 C 180.192 258.726,181.250 258.406,181.250 257.825 C 181.250 257.374,181.085 257.371,179.688 257.798 M211.396 270.570 C 211.472 270.965,211.795 271.289,212.115 271.289 C 212.952 271.289,212.831 270.154,211.976 269.989 C 211.454 269.889,211.295 270.048,211.396 270.570 M203.329 271.906 C 214.058 275.220,214.691 290.970,204.297 296.011 C 195.608 300.226,186.133 294.054,186.133 284.180 C 186.133 274.589,193.950 269.009,203.329 271.906 M211.126 273.448 C 210.861 273.877,211.581 275.000,212.121 275.000 C 212.496 275.000,212.138 273.502,211.699 273.230 C 211.525 273.122,211.267 273.220,211.126 273.448 M235.547 276.130 C 235.547 276.322,235.283 276.580,234.961 276.704 C 234.604 276.841,234.375 276.704,234.375 276.355 C 234.375 276.039,234.639 275.781,234.961 275.781 C 235.283 275.781,235.547 275.938,235.547 276.130 M164.257 277.492 C 163.554 278.005,163.582 278.087,164.865 279.259 C 166.371 280.635,167.322 280.689,167.505 279.411 C 167.798 277.358,165.941 276.260,164.257 277.492 M196.492 279.004 C 189.875 282.385,193.978 292.240,200.853 289.481 C 206.629 287.163,205.017 278.125,198.828 278.125 C 198.489 278.125,197.438 278.521,196.492 279.004 M175.488 283.093 C 175.220 283.189,175.000 283.705,175.000 284.238 C 175.000 285.405,177.046 285.465,177.266 284.304 C 177.402 283.586,176.268 282.814,175.488 283.093 " stroke="none" fill="#150431" fill-rule="evenodd"></path><path id="path1" d="M163.086 87.511 C 160.677 87.984,158.203 89.088,158.203 89.691 C 158.203 89.990,158.048 90.234,157.857 90.234 C 156.889 90.234,156.104 92.478,156.055 95.387 C 156.028 97.041,156.129 98.317,156.281 98.223 C 156.433 98.129,156.658 98.455,156.782 98.947 C 157.254 100.827,161.931 102.559,164.812 101.921 C 174.449 99.786,172.752 85.616,163.086 87.511 M253.513 87.822 C 252.974 88.182,251.065 89.531,249.271 90.820 C 247.477 92.109,244.837 93.955,243.405 94.922 C 241.973 95.889,240.082 97.207,239.203 97.852 L 237.605 99.023 237.410 108.203 C 237.181 119.000,236.741 117.527,240.258 117.725 C 241.857 117.815,242.796 117.810,242.346 117.714 C 241.561 117.547,240.557 104.648,241.175 102.676 C 241.266 102.386,241.447 101.665,241.576 101.074 C 241.706 100.483,242.007 100.000,242.246 100.000 C 242.485 100.000,243.536 99.385,244.583 98.633 C 245.630 97.881,246.579 97.266,246.692 97.266 C 246.805 97.266,248.650 96.128,250.793 94.738 L 254.688 92.211 254.688 89.660 C 254.688 88.257,254.644 87.122,254.590 87.138 C 254.536 87.154,254.052 87.461,253.513 87.822 M213.281 91.797 C 213.281 92.526,213.385 92.630,213.750 92.266 C 214.115 91.901,214.115 91.693,213.750 91.328 C 213.385 90.964,213.281 91.068,213.281 91.797 M219.088 93.151 C 219.000 93.240,218.010 93.355,216.890 93.406 C 215.769 93.457,214.937 93.583,215.040 93.686 C 215.143 93.789,215.009 94.143,214.743 94.473 C 214.433 94.855,214.420 94.975,214.705 94.804 C 214.951 94.656,215.257 94.808,215.384 95.140 C 215.534 95.530,215.458 95.646,215.170 95.468 C 214.895 95.298,214.830 95.365,215.002 95.643 C 215.157 95.893,216.215 96.094,217.383 96.094 C 218.551 96.094,219.609 95.893,219.764 95.643 C 219.931 95.373,219.872 95.297,219.617 95.455 C 219.318 95.639,219.292 95.366,219.528 94.544 C 219.821 93.520,219.557 92.683,219.088 93.151 M188.894 94.710 C 188.269 95.476,188.286 95.513,189.317 95.639 C 190.315 95.761,191.406 94.941,191.406 94.070 C 191.406 93.453,189.531 93.930,188.894 94.710 M212.465 95.020 C 211.154 98.675,213.063 103.066,214.638 100.019 C 215.358 98.628,215.450 96.696,214.777 97.111 C 214.472 97.300,214.401 97.182,214.565 96.756 C 214.852 96.008,214.171 95.477,213.141 95.647 C 212.700 95.720,212.517 95.601,212.676 95.344 C 212.819 95.112,212.838 94.922,212.718 94.922 C 212.598 94.922,212.484 94.966,212.465 95.020 M244.488 118.142 C 244.386 118.244,239.828 118.350,234.359 118.378 C 223.102 118.436,211.612 118.943,210.762 119.419 C 209.979 119.857,210.616 120.801,211.781 120.929 C 212.284 120.984,212.827 121.043,212.988 121.061 C 213.994 121.173,213.020 121.882,211.816 121.914 C 208.388 122.005,208.503 122.580,211.957 122.617 C 216.272 122.665,219.196 123.031,218.913 123.489 C 218.723 123.797,219.280 123.991,220.020 123.874 C 220.181 123.849,220.292 123.960,220.266 124.121 C 220.148 124.869,220.345 125.417,220.662 125.221 C 221.263 124.849,221.408 125.927,220.948 127.348 C 220.147 129.827,219.054 130.077,209.023 130.078 L 200.273 130.078 196.133 132.077 C 193.855 133.176,190.586 134.680,188.867 135.420 C 187.148 136.160,185.391 136.929,184.961 137.129 C 184.159 137.501,181.571 138.633,168.392 144.376 C 153.021 151.073,153.538 150.477,153.524 161.534 L 153.516 168.576 152.304 169.640 C 151.637 170.225,151.279 170.703,151.507 170.703 C 151.736 170.703,152.303 170.308,152.768 169.824 L 153.614 168.945 153.427 170.001 C 153.243 171.044,153.254 171.050,154.452 170.540 C 155.119 170.256,158.652 168.754,162.305 167.203 C 165.957 165.652,171.084 163.430,173.699 162.266 C 176.313 161.101,180.708 159.204,183.464 158.050 C 188.764 155.832,198.838 151.403,206.135 148.085 C 212.737 145.082,214.074 145.389,214.693 150.054 C 214.878 151.455,214.832 151.992,214.539 151.811 C 214.308 151.668,214.009 151.896,213.875 152.318 C 213.728 152.783,213.409 153.000,213.066 152.868 C 212.755 152.749,212.500 152.853,212.500 153.100 C 212.500 153.705,201.127 159.107,188.867 164.325 C 187.148 165.057,185.215 165.899,184.570 166.196 C 183.926 166.493,182.520 167.087,181.445 167.515 C 180.371 167.944,177.646 169.159,175.391 170.215 C 173.135 171.272,170.730 172.378,170.048 172.674 C 169.365 172.970,168.865 173.307,168.936 173.423 C 169.007 173.538,168.656 173.657,168.156 173.687 C 167.656 173.717,166.310 174.178,165.166 174.712 C 164.022 175.245,161.768 176.247,160.156 176.937 C 158.545 177.628,156.436 178.552,155.469 178.991 L 153.711 179.789 153.711 187.691 L 153.711 195.593 154.688 195.295 C 155.225 195.131,156.938 194.463,158.496 193.810 C 162.575 192.100,161.981 192.711,157.520 194.814 C 155.425 195.801,153.623 196.728,153.516 196.874 C 153.408 197.019,152.725 197.341,151.997 197.591 C 151.270 197.840,150.422 198.352,150.113 198.729 C 149.804 199.106,149.663 199.194,149.799 198.926 C 150.169 198.194,149.747 198.311,146.715 199.777 C 145.192 200.514,142.979 201.544,141.797 202.066 C 139.438 203.108,136.890 205.371,136.266 206.978 C 135.521 208.894,134.794 214.976,135.138 216.406 C 135.319 217.158,135.485 217.483,135.507 217.129 C 135.617 215.354,139.088 211.755,142.183 210.205 C 143.873 209.359,145.142 208.554,145.003 208.415 C 144.864 208.276,145.030 208.269,145.372 208.400 C 145.713 208.531,146.235 208.409,146.532 208.128 C 146.828 207.847,147.290 207.600,147.559 207.578 C 148.921 207.469,149.019 207.407,148.438 207.013 C 148.003 206.719,148.129 206.681,148.926 206.866 C 149.627 207.029,150.000 206.957,150.000 206.660 C 150.000 206.409,150.165 206.306,150.367 206.431 C 150.569 206.556,151.123 206.259,151.597 205.770 C 152.071 205.282,152.336 205.101,152.186 205.367 C 152.003 205.691,152.112 205.774,152.517 205.619 C 152.849 205.491,153.030 205.240,152.919 205.061 C 152.808 204.882,153.030 204.758,153.411 204.787 C 153.793 204.816,157.005 203.544,160.549 201.962 C 171.612 197.021,175.018 197.928,173.418 205.389 C 172.693 208.772,170.970 210.000,160.697 214.459 C 152.926 217.832,153.465 217.274,153.544 221.847 C 153.607 225.498,153.649 225.673,154.405 225.475 C 155.785 225.115,154.829 225.974,152.661 227.044 C 148.747 228.974,144.514 230.859,144.091 230.859 C 143.592 230.859,143.751 258.939,144.251 259.248 C 144.560 259.439,147.476 258.200,151.758 256.056 C 153.238 255.315,154.085 254.652,154.057 254.256 C 154.032 253.911,153.892 252.829,153.745 251.851 L 153.479 250.073 154.962 249.592 C 155.778 249.328,158.610 248.081,161.255 246.822 C 163.900 245.562,166.137 244.531,166.226 244.531 C 166.314 244.531,167.490 244.026,168.838 243.409 C 170.186 242.792,172.959 241.575,175.000 240.706 C 177.041 239.836,180.466 238.303,182.611 237.300 C 190.091 233.801,195.748 231.250,196.028 231.250 C 196.354 231.250,204.486 227.591,210.675 224.660 C 213.001 223.558,214.983 222.656,215.080 222.656 C 215.177 222.656,216.526 222.025,218.077 221.253 C 219.629 220.481,221.689 219.534,222.656 219.148 C 226.545 217.594,232.840 214.423,232.649 214.114 C 232.537 213.933,232.836 213.851,233.313 213.933 C 234.760 214.180,235.520 213.401,234.570 212.643 C 234.109 212.275,233.966 211.952,234.222 211.855 C 235.149 211.503,236.118 210.597,235.852 210.331 C 235.698 210.177,235.048 210.268,234.408 210.533 C 233.767 210.799,232.619 211.016,231.856 211.016 C 231.093 211.016,230.469 211.174,230.469 211.367 C 230.469 211.561,230.117 211.719,229.688 211.719 C 228.482 211.719,228.763 211.092,230.145 210.695 C 230.827 210.500,231.449 210.144,231.529 209.906 C 231.737 209.281,230.556 208.929,229.770 209.381 C 228.703 209.995,225.259 211.437,224.515 211.581 C 224.141 211.653,221.980 212.505,219.712 213.474 C 214.635 215.642,213.007 215.754,211.558 214.033 C 209.090 211.100,210.608 208.321,215.911 206.061 C 222.693 203.170,228.451 200.613,235.841 197.212 C 239.978 195.308,243.519 193.750,243.710 193.750 C 244.316 193.750,244.531 192.603,244.531 189.376 C 244.531 185.597,245.218 185.608,236.719 189.251 C 233.389 190.679,228.730 192.654,226.367 193.640 C 224.004 194.627,221.367 195.749,220.508 196.135 C 219.648 196.520,215.869 198.146,212.109 199.748 C 208.350 201.349,204.219 203.137,202.930 203.719 C 199.177 205.415,197.468 205.970,198.008 205.320 C 198.254 205.024,198.973 204.678,199.606 204.551 C 200.239 204.425,201.114 203.964,201.550 203.528 C 201.987 203.091,202.563 202.734,202.832 202.732 C 203.439 202.730,201.150 200.815,200.517 200.795 C 199.881 200.776,198.397 198.820,198.675 198.369 C 198.800 198.167,199.413 198.113,200.037 198.250 C 201.006 198.463,201.172 198.381,201.172 197.687 C 201.172 196.863,200.737 196.711,198.828 196.870 C 198.291 196.914,197.939 196.872,198.047 196.775 C 198.385 196.469,203.538 193.908,208.105 191.774 C 213.145 189.420,212.915 189.834,211.104 186.377 C 208.602 181.601,209.714 179.930,217.524 176.725 C 220.025 175.699,223.740 174.083,225.781 173.135 C 227.822 172.187,230.283 171.092,231.250 170.702 C 232.217 170.313,234.590 169.255,236.523 168.353 C 246.051 163.905,246.612 163.603,246.054 163.209 C 245.643 162.918,245.718 162.869,246.361 163.009 C 246.831 163.111,247.552 162.959,247.964 162.670 C 248.376 162.382,249.222 162.053,249.844 161.940 C 251.048 161.722,252.302 160.468,251.563 160.222 C 250.723 159.942,249.761 160.547,250.402 160.953 C 250.817 161.216,250.577 161.318,249.535 161.322 C 248.742 161.325,247.984 161.152,247.852 160.938 C 247.478 160.334,246.951 160.474,246.754 161.230 C 246.594 161.843,246.570 161.838,246.530 161.183 C 246.492 160.567,246.388 160.531,245.879 160.954 C 245.341 161.400,245.287 161.158,245.391 158.768 L 245.508 156.080 246.674 156.068 C 247.779 156.055,247.858 155.945,248.174 153.973 C 248.357 152.829,248.607 151.992,248.729 152.115 C 249.095 152.480,250.000 151.520,250.000 150.766 C 250.000 150.380,249.780 149.990,249.512 149.899 C 249.243 149.807,249.788 149.341,250.721 148.863 C 251.655 148.384,252.666 148.087,252.968 148.203 C 253.296 148.329,253.544 148.143,253.587 147.742 C 253.627 147.372,253.770 148.477,253.906 150.195 C 254.147 153.238,254.155 153.196,254.225 148.588 C 254.308 143.134,254.461 143.284,250.610 145.051 C 249.334 145.637,247.882 146.218,247.384 146.343 C 246.885 146.469,246.380 146.727,246.262 146.918 C 246.144 147.109,245.781 147.266,245.455 147.266 C 244.907 147.266,240.508 149.007,236.328 150.880 C 235.361 151.313,232.604 152.511,230.201 153.542 C 227.799 154.573,225.412 155.693,224.897 156.030 C 224.382 156.367,223.843 156.526,223.699 156.382 C 223.555 156.238,223.438 156.354,223.438 156.641 C 223.438 156.927,223.320 157.044,223.176 156.900 C 223.033 156.756,222.635 156.892,222.294 157.201 C 221.952 157.510,221.169 157.854,220.554 157.966 C 219.939 158.077,219.116 158.457,218.727 158.810 C 218.337 159.163,217.831 159.336,217.603 159.195 C 217.374 159.054,217.188 159.135,217.188 159.375 C 217.188 159.615,217.030 159.714,216.838 159.596 C 216.645 159.477,216.380 159.660,216.249 160.004 C 216.112 160.360,215.759 160.532,215.426 160.404 C 215.050 160.260,214.842 160.419,214.838 160.852 C 214.833 161.428,214.778 161.440,214.453 160.938 C 214.192 160.534,214.072 161.383,214.067 163.672 C 214.058 167.497,213.377 169.063,211.248 170.151 C 210.540 170.513,209.830 171.032,209.669 171.306 C 209.502 171.590,209.017 171.708,208.534 171.582 C 207.901 171.416,207.770 171.491,208.011 171.880 C 208.243 172.255,208.155 172.331,207.693 172.153 C 207.341 172.018,206.829 172.120,206.554 172.380 C 206.280 172.639,205.835 172.869,205.566 172.891 C 204.420 172.982,204.265 173.070,204.518 173.479 C 204.697 173.769,204.516 173.826,203.970 173.653 C 203.405 173.474,202.943 173.641,202.467 174.197 C 202.089 174.639,201.599 174.997,201.378 174.994 C 201.157 174.991,201.240 174.818,201.563 174.609 C 201.885 174.401,201.973 174.231,201.758 174.231 C 201.228 174.231,200.094 174.983,200.586 175.008 C 200.801 175.019,200.537 175.277,200.000 175.583 C 199.463 175.888,198.694 176.039,198.291 175.918 C 197.815 175.775,197.652 175.849,197.826 176.130 C 198.192 176.722,197.836 176.673,196.367 175.929 C 191.432 173.430,192.665 170.178,199.666 167.226 C 214.116 161.133,214.063 161.177,214.063 155.495 L 214.063 152.494 215.723 151.769 C 216.636 151.371,218.877 150.354,220.703 149.510 C 222.529 148.666,225.078 147.536,226.367 146.997 C 230.514 145.266,251.314 135.811,252.930 134.923 C 254.817 133.886,255.274 130.816,254.083 127.172 C 253.325 124.852,250.896 121.367,250.296 121.738 C 250.067 121.880,249.987 121.821,250.120 121.607 C 250.526 120.950,246.095 118.098,245.536 118.657 C 245.390 118.803,245.136 118.705,244.972 118.440 C 244.807 118.174,244.590 118.040,244.488 118.142 M159.305 129.940 C 159.684 130.103,159.607 130.311,159.012 130.728 C 157.307 131.922,158.562 135.083,160.974 135.674 C 162.391 136.021,163.606 134.657,163.599 132.728 C 163.596 131.929,163.479 131.309,163.340 131.350 C 163.200 131.391,162.646 131.142,162.109 130.797 C 161.572 130.453,160.605 130.069,159.961 129.945 C 159.316 129.820,159.021 129.818,159.305 129.940 M194.629 131.129 C 195.005 131.227,195.620 131.227,195.996 131.129 C 196.372 131.030,196.064 130.950,195.313 130.950 C 194.561 130.950,194.253 131.030,194.629 131.129 M131.836 143.287 C 129.837 144.078,129.639 144.375,129.776 146.387 C 129.838 147.309,129.714 148.053,129.495 148.061 C 129.279 148.069,129.629 148.507,130.273 149.036 C 132.640 150.976,136.185 149.722,136.950 146.675 C 137.267 145.412,136.674 143.511,136.007 143.652 C 135.754 143.706,135.591 143.557,135.645 143.320 C 135.801 142.633,133.539 142.614,131.836 143.287 M250.781 149.609 C 250.781 149.824,251.396 150.000,252.148 150.000 C 252.900 150.000,253.516 149.824,253.516 149.609 C 253.516 149.395,252.900 149.219,252.148 149.219 C 251.396 149.219,250.781 149.395,250.781 149.609 M252.344 160.156 C 252.344 160.371,252.607 160.547,252.930 160.547 C 253.252 160.547,253.516 160.371,253.516 160.156 C 253.516 159.941,253.252 159.766,252.930 159.766 C 252.607 159.766,252.344 159.941,252.344 160.156 M143.886 169.141 C 143.886 170.967,143.954 171.714,144.036 170.801 C 144.118 169.888,144.118 168.394,144.036 167.480 C 143.954 166.567,143.886 167.314,143.886 169.141 M127.952 171.057 C 127.827 171.259,127.200 171.540,126.559 171.681 C 124.245 172.189,123.486 174.602,125.391 175.391 C 127.683 176.340,130.139 174.285,129.312 172.110 C 128.895 171.013,128.276 170.534,127.952 171.057 M147.438 172.442 C 146.706 172.988,146.711 173.000,147.565 172.785 C 148.051 172.662,148.545 172.407,148.662 172.218 C 148.992 171.684,148.278 171.814,147.438 172.442 M268.555 178.014 C 266.367 178.411,265.984 178.615,265.433 179.682 C 264.708 181.083,266.004 182.315,267.743 181.878 C 270.229 181.255,271.003 177.569,268.555 178.014 M141.016 185.140 C 136.892 187.287,136.021 188.714,135.712 193.835 L 135.493 197.461 136.373 196.332 C 136.858 195.712,138.008 194.726,138.929 194.141 C 139.851 193.557,140.477 192.938,140.322 192.766 C 140.166 192.594,140.246 192.571,140.498 192.716 C 141.115 193.069,143.008 192.177,142.700 191.678 C 142.553 191.440,142.771 191.366,143.251 191.491 C 144.008 191.689,144.049 191.514,144.112 187.842 C 144.189 183.418,144.239 183.462,141.016 185.140 M201.563 200.293 C 201.563 200.454,202.002 200.586,202.539 200.586 C 203.076 200.586,203.516 200.454,203.516 200.293 C 203.516 200.132,203.076 200.000,202.539 200.000 C 202.002 200.000,201.563 200.132,201.563 200.293 M267.578 204.883 C 267.211 205.326,267.206 205.469,267.558 205.469 C 267.815 205.469,268.288 205.205,268.610 204.883 C 269.113 204.380,269.116 204.297,268.630 204.297 C 268.319 204.297,267.846 204.561,267.578 204.883 M231.435 212.126 C 231.296 212.351,231.416 212.816,231.702 213.159 C 232.161 213.713,232.108 213.750,231.247 213.484 C 229.866 213.059,229.786 212.898,230.642 212.273 C 231.542 211.615,231.778 211.571,231.435 212.126 M198.077 216.767 C 200.759 219.449,198.459 223.762,194.578 223.324 C 189.413 222.742,189.911 215.625,195.117 215.625 C 196.606 215.625,197.142 215.832,198.077 216.767 M265.020 223.986 C 260.785 225.834,262.026 231.340,266.542 230.734 C 270.151 230.250,271.707 223.828,268.216 223.828 C 267.685 223.828,267.017 223.747,266.731 223.647 C 266.445 223.547,265.675 223.700,265.020 223.986 M173.448 226.833 C 175.254 228.068,175.566 230.188,174.240 232.200 C 172.630 234.643,170.287 235.015,168.178 233.163 C 164.302 229.760,169.175 223.908,173.448 226.833 M124.063 235.219 C 123.374 236.201,123.566 236.719,124.619 236.719 C 125.782 236.719,126.371 235.290,125.419 234.781 C 124.803 234.451,124.541 234.535,124.063 235.219 M198.047 272.291 C 195.033 272.820,194.083 273.133,193.881 273.660 C 193.773 273.940,193.462 274.084,193.189 273.979 C 192.917 273.874,192.157 274.400,191.501 275.147 C 190.845 275.895,190.229 276.426,190.132 276.329 C 188.796 274.994,186.382 283.178,187.074 286.696 C 187.331 288.002,187.433 289.245,187.302 289.457 C 187.171 289.670,187.207 289.844,187.383 289.844 C 187.559 289.844,187.934 290.214,188.216 290.666 C 188.641 291.347,188.641 291.434,188.212 291.174 C 187.928 291.002,188.223 291.480,188.867 292.237 C 196.785 301.541,211.130 295.978,211.132 283.603 C 211.133 279.334,208.177 273.464,206.537 274.478 C 206.299 274.625,206.246 274.541,206.410 274.276 C 206.573 274.011,206.395 273.729,205.982 273.597 C 205.592 273.473,204.658 273.134,203.906 272.845 C 201.996 272.109,200.101 271.930,198.047 272.291 M202.221 279.160 C 205.576 281.335,206.081 285.680,203.303 288.459 C 198.434 293.327,190.244 287.748,193.343 281.673 C 193.763 280.849,193.983 280.021,193.831 279.834 C 193.679 279.646,193.711 279.619,193.901 279.774 C 194.092 279.928,194.707 279.734,195.268 279.341 C 197.526 277.761,199.966 277.698,202.221 279.160 " stroke="none" fill="#e82250" fill-rule="evenodd"></path><path id="path2" d="M248.785 84.495 C 242.423 88.825,232.475 96.174,232.277 96.689 C 232.142 97.041,232.031 101.880,232.031 107.441 L 232.031 117.553 193.066 117.663 L 154.102 117.773 151.563 119.005 C 148.446 120.516,147.438 121.412,145.477 124.414 L 143.945 126.758 143.927 146.094 C 143.918 156.729,143.970 167.627,144.044 170.313 L 144.179 175.195 148.847 172.948 C 152.702 171.093,153.516 170.552,153.516 169.847 L 153.516 168.993 152.719 169.848 C 152.281 170.318,151.736 170.703,151.507 170.703 C 151.279 170.703,151.637 170.225,152.304 169.640 L 153.516 168.576 153.524 161.534 C 153.538 150.477,153.021 151.073,168.392 144.376 C 181.571 138.633,184.159 137.501,184.961 137.129 C 185.391 136.929,187.148 136.160,188.867 135.420 C 190.586 134.680,193.855 133.176,196.133 132.077 L 200.273 130.078 209.023 130.078 C 219.054 130.077,220.147 129.827,220.948 127.348 C 221.552 125.481,221.113 124.537,220.488 126.357 C 219.461 129.342,218.363 129.465,195.001 129.222 L 178.009 129.046 177.091 127.978 C 175.934 126.633,175.938 126.097,177.114 124.729 L 178.057 123.633 198.696 123.438 C 216.011 123.274,224.418 122.754,211.957 122.617 C 208.503 122.580,208.388 122.005,211.816 121.914 C 213.020 121.882,213.994 121.173,212.988 121.061 C 212.827 121.043,212.284 120.984,211.781 120.929 C 210.615 120.801,209.979 119.857,210.763 119.418 C 211.385 119.070,224.225 118.290,227.238 118.418 C 230.320 118.548,244.674 118.371,244.499 118.205 C 244.409 118.120,242.771 117.947,240.859 117.820 C 236.653 117.542,237.181 119.018,237.409 108.184 L 237.602 98.986 238.820 98.119 C 239.491 97.642,241.445 96.293,243.164 95.122 C 244.883 93.951,247.750 91.933,249.535 90.638 C 251.321 89.343,253.122 88.101,253.539 87.878 C 254.915 87.142,254.326 85.038,252.467 84.048 C 251.204 83.375,250.262 83.490,248.785 84.495 M160.251 86.660 C 156.341 87.787,153.886 93.660,155.715 97.514 C 156.521 99.211,156.741 99.028,156.209 97.102 C 155.626 94.989,156.117 92.055,157.260 90.821 C 157.779 90.261,158.203 89.649,158.203 89.461 C 158.203 88.821,162.686 87.429,164.928 87.373 C 166.918 87.324,167.067 87.266,166.295 86.837 C 165.387 86.332,161.758 86.226,160.251 86.660 M211.850 88.502 C 211.530 89.337,211.996 93.012,212.484 93.500 C 213.725 94.741,215.446 90.695,214.607 88.509 C 214.293 87.692,212.163 87.686,211.850 88.502 M213.750 92.266 C 213.385 92.630,213.281 92.526,213.281 91.797 C 213.281 91.068,213.385 90.964,213.750 91.328 C 214.115 91.693,214.115 91.901,213.750 92.266 M188.359 93.047 C 187.875 93.532,187.701 95.313,188.138 95.313 C 188.274 95.313,188.700 94.949,189.085 94.506 C 189.470 94.062,189.886 93.710,190.009 93.724 C 190.790 93.813,190.965 93.683,190.766 93.164 C 190.497 92.462,189.016 92.390,188.359 93.047 M206.510 93.229 C 205.663 94.076,206.288 95.677,207.608 96.041 C 210.544 96.852,213.328 94.639,210.963 93.373 C 210.125 92.924,206.919 92.821,206.510 93.229 M215.106 93.535 C 214.450 94.032,214.721 95.703,215.457 95.703 C 215.565 95.703,215.474 95.370,215.256 94.963 C 214.679 93.883,215.611 93.287,217.647 93.433 C 219.191 93.544,219.335 93.644,219.323 94.600 C 219.316 95.174,219.447 95.560,219.616 95.456 C 220.079 95.169,219.982 93.967,219.453 93.438 C 218.818 92.802,215.989 92.866,215.106 93.535 M212.188 95.781 C 211.675 96.294,211.535 100.231,212.019 100.530 C 212.184 100.632,212.253 100.025,212.173 99.182 C 211.875 96.056,212.935 94.714,214.236 96.571 C 214.570 97.049,214.844 97.252,214.844 97.022 C 214.844 95.867,212.975 94.994,212.188 95.781 M241.147 105.469 C 241.147 107.080,241.216 107.739,241.300 106.934 C 241.384 106.128,241.384 104.810,241.300 104.004 C 241.216 103.198,241.147 103.857,241.147 105.469 M162.965 130.555 C 164.593 132.432,163.249 135.938,160.901 135.938 C 157.018 135.938,156.129 130.945,159.766 129.565 C 160.703 129.209,162.200 129.672,162.965 130.555 M195.996 131.129 C 195.620 131.227,195.005 131.227,194.629 131.129 C 194.253 131.030,194.561 130.950,195.313 130.950 C 196.064 130.950,196.372 131.030,195.996 131.129 M130.985 142.427 C 129.411 143.203,128.273 145.445,128.757 146.815 C 129.265 148.251,129.981 148.304,129.773 146.891 C 129.405 144.385,132.259 141.940,134.532 142.813 C 134.875 142.945,135.156 142.880,135.156 142.669 C 135.156 142.458,134.607 142.175,133.936 142.041 C 132.353 141.724,132.430 141.714,130.985 142.427 M214.544 150.781 C 214.544 151.533,214.624 151.841,214.722 151.465 C 214.821 151.089,214.821 150.474,214.722 150.098 C 214.624 149.722,214.544 150.029,214.544 150.781 M208.984 154.651 C 207.158 155.484,201.621 157.924,196.680 160.072 C 173.380 170.204,169.324 171.966,163.672 174.411 C 160.342 175.853,156.299 177.604,154.688 178.303 C 153.076 179.002,149.157 180.680,145.977 182.031 C 136.249 186.165,135.381 187.117,135.290 193.750 L 135.229 198.242 135.577 194.231 C 136.064 188.614,136.880 187.269,141.102 185.121 C 144.198 183.546,144.141 183.501,144.141 187.513 C 144.141 190.806,144.082 191.064,143.262 191.394 C 142.778 191.588,142.599 191.758,142.863 191.772 C 143.127 191.786,145.073 191.030,147.187 190.093 C 149.302 189.155,151.701 188.167,152.519 187.897 L 154.006 187.406 153.824 183.614 L 153.641 179.821 155.434 179.007 C 156.420 178.559,158.545 177.628,160.156 176.937 C 161.768 176.247,164.022 175.245,165.166 174.712 C 166.310 174.178,167.656 173.717,168.156 173.687 C 168.656 173.657,169.007 173.538,168.936 173.423 C 168.865 173.307,169.365 172.970,170.048 172.674 C 170.730 172.378,173.135 171.272,175.391 170.215 C 177.646 169.159,180.371 167.944,181.445 167.515 C 182.520 167.087,183.926 166.493,184.570 166.196 C 185.215 165.899,187.148 165.057,188.867 164.325 C 198.696 160.142,212.500 153.724,212.500 153.337 C 212.500 153.036,212.627 152.989,208.984 154.651 M124.609 171.094 C 124.148 171.555,123.829 172.394,123.830 173.145 L 123.831 174.414 124.582 173.182 C 125.247 172.092,127.176 171.147,128.209 171.405 C 128.362 171.444,128.387 171.213,128.264 170.894 C 127.931 170.024,125.548 170.155,124.609 171.094 M148.662 172.218 C 148.545 172.407,148.051 172.662,147.565 172.785 C 146.711 173.000,146.706 172.988,147.438 172.442 C 148.278 171.814,148.992 171.684,148.662 172.218 M199.219 175.586 C 198.682 175.893,198.418 176.144,198.633 176.144 C 198.848 176.144,199.463 175.893,200.000 175.586 C 200.537 175.279,200.801 175.028,200.586 175.028 C 200.371 175.028,199.756 175.279,199.219 175.586 M265.712 177.561 C 265.117 177.978,264.847 178.562,264.856 179.417 C 264.866 180.538,264.911 180.585,265.295 179.883 C 265.946 178.692,266.833 178.125,268.043 178.125 C 269.234 178.125,269.517 177.572,268.523 177.190 C 267.509 176.801,266.632 176.917,265.712 177.561 M157.813 194.013 C 137.769 202.340,135.096 204.157,135.204 209.375 L 135.248 211.523 135.555 209.766 C 136.212 206.008,138.075 203.710,141.797 202.066 C 142.979 201.544,145.192 200.514,146.715 199.777 C 149.747 198.311,150.169 198.194,149.799 198.926 C 149.663 199.194,149.804 199.106,150.113 198.729 C 150.422 198.352,151.270 197.840,151.997 197.591 C 152.725 197.341,153.408 197.019,153.516 196.874 C 153.623 196.728,155.425 195.801,157.520 194.814 C 162.842 192.305,163.006 191.855,157.813 194.013 M267.057 203.385 C 266.782 203.660,266.690 205.078,266.948 205.078 C 267.575 205.078,268.974 203.993,268.845 203.607 C 268.675 203.095,267.494 202.949,267.057 203.385 M264.844 222.931 C 262.769 223.686,261.160 226.838,262.060 228.386 C 262.416 228.998,262.478 228.916,262.488 227.818 C 262.512 225.210,264.804 223.354,267.578 223.697 L 268.945 223.866 267.969 223.275 C 266.971 222.671,265.887 222.552,264.844 222.931 M152.850 226.157 C 152.161 226.577,150.052 227.556,148.162 228.333 C 144.912 229.670,142.975 230.859,144.048 230.859 C 144.871 230.859,154.589 226.256,154.930 225.705 C 155.285 225.130,154.119 225.383,152.850 226.157 M123.516 234.063 C 123.258 234.320,123.052 234.979,123.059 235.527 L 123.072 236.523 123.859 235.469 C 124.325 234.844,124.878 234.503,125.214 234.631 C 125.526 234.751,125.781 234.673,125.781 234.459 C 125.781 234.095,124.903 233.594,124.265 233.594 C 124.111 233.594,123.773 233.805,123.516 234.063 M195.898 271.433 C 188.692 273.323,184.320 281.182,186.674 288.014 C 187.419 290.178,187.629 289.516,187.080 286.730 C 186.382 283.181,188.787 274.985,190.132 276.329 C 190.229 276.426,190.845 275.895,191.501 275.147 C 192.157 274.400,192.917 273.874,193.189 273.979 C 193.462 274.084,193.766 273.961,193.864 273.706 C 194.410 272.287,201.600 271.659,203.868 272.832 C 204.573 273.197,205.249 273.396,205.370 273.276 C 206.341 272.305,198.438 270.767,195.898 271.433 " stroke="none" fill="#f4cea8" fill-rule="evenodd"></path><path id="path3" d="M162.402 86.213 C 162.886 86.306,163.677 86.306,164.160 86.213 C 164.644 86.120,164.248 86.044,163.281 86.044 C 162.314 86.044,161.919 86.120,162.402 86.213 M207.520 92.847 C 207.896 92.946,208.511 92.946,208.887 92.847 C 209.263 92.749,208.955 92.669,208.203 92.669 C 207.451 92.669,207.144 92.749,207.520 92.847 M231.805 97.009 C 231.695 97.298,231.658 98.836,231.724 100.427 L 231.844 103.320 232.036 99.901 C 232.226 96.495,232.188 96.013,231.805 97.009 M146.193 122.754 C 145.641 123.452,144.863 125.000,145.065 125.000 C 145.159 125.000,145.598 124.385,146.042 123.633 C 146.848 122.266,146.923 121.833,146.193 122.754 M192.090 129.199 C 196.440 129.262,203.560 129.262,207.910 129.199 C 212.261 129.136,208.701 129.084,200.000 129.084 C 191.299 129.084,187.739 129.136,192.090 129.199 M252.539 181.884 C 252.109 182.220,250.791 182.947,249.609 183.501 C 246.152 185.121,246.094 185.210,246.094 188.928 C 246.094 192.357,246.302 192.683,247.955 191.842 C 248.328 191.653,249.072 191.319,249.609 191.100 C 250.146 190.882,251.395 190.345,252.384 189.908 L 254.182 189.113 254.398 185.961 C 254.714 181.344,254.325 180.491,252.539 181.884 M252.344 199.219 C 251.807 199.639,251.179 199.987,250.948 199.991 C 248.791 200.036,245.644 206.209,247.752 206.262 C 248.054 206.270,247.980 206.474,247.559 206.794 C 245.517 208.343,247.486 208.370,251.758 206.851 L 254.102 206.017 254.213 202.227 C 254.335 198.097,254.153 197.803,252.344 199.219 M148.432 215.624 C 147.462 216.009,146.006 216.715,145.198 217.192 L 143.728 218.059 143.813 223.678 C 143.860 226.768,143.932 229.297,143.972 229.297 C 144.012 229.297,144.702 229.022,145.506 228.687 C 146.309 228.351,147.207 228.169,147.502 228.282 C 147.796 228.395,147.996 228.285,147.945 228.036 C 147.893 227.788,148.203 227.522,148.633 227.444 C 149.275 227.327,149.310 227.374,148.828 227.707 C 148.506 227.930,148.418 228.113,148.633 228.113 C 149.194 228.113,150.063 227.511,150.089 227.105 C 150.110 226.767,152.344 225.656,152.344 225.983 C 152.344 226.073,151.860 226.409,151.270 226.730 C 150.679 227.050,150.423 227.320,150.701 227.328 C 151.498 227.353,153.120 225.519,153.177 224.529 C 153.674 215.927,152.625 213.959,148.432 215.624 M243.750 231.576 C 243.750 231.956,237.529 234.946,233.008 236.739 C 228.741 238.431,226.570 239.357,225.261 240.044 C 224.653 240.364,223.977 240.625,223.758 240.625 C 223.539 240.625,221.901 241.328,220.117 242.188 C 218.333 243.047,216.678 243.750,216.439 243.750 C 216.200 243.750,215.700 243.917,215.327 244.122 C 214.954 244.326,213.945 244.780,213.086 245.131 C 212.227 245.481,210.908 246.036,210.156 246.364 C 209.404 246.691,207.559 247.402,206.055 247.944 C 204.551 248.486,202.974 249.170,202.550 249.464 C 202.126 249.759,201.537 250.000,201.242 250.000 C 200.946 250.000,199.078 250.791,197.091 251.758 C 195.103 252.725,193.134 253.516,192.715 253.516 C 192.296 253.516,191.761 253.708,191.526 253.942 C 191.223 254.245,190.875 254.249,190.326 253.956 C 189.542 253.536,187.510 254.133,187.503 254.785 C 187.499 255.214,188.061 255.142,188.552 254.651 C 188.787 254.416,189.303 254.286,189.699 254.362 C 190.252 254.469,190.106 254.652,189.065 255.156 C 188.218 255.566,187.622 255.666,187.471 255.422 C 187.190 254.967,185.156 255.388,185.156 255.902 C 185.156 256.093,185.376 256.253,185.645 256.256 C 185.970 256.260,185.938 256.388,185.547 256.641 C 184.724 257.173,183.090 257.140,183.424 256.599 C 183.610 256.298,183.319 256.248,182.471 256.435 C 181.483 256.652,181.250 256.578,181.250 256.049 C 181.250 255.690,180.884 255.300,180.437 255.183 C 179.909 255.045,179.685 254.737,179.799 254.305 C 179.997 253.547,177.931 253.739,176.270 254.633 C 175.034 255.297,175.158 255.409,177.051 255.337 C 179.398 255.247,179.511 256.008,177.190 256.274 C 175.598 256.457,175.250 256.382,175.104 255.822 C 174.889 255.003,171.446 256.184,166.349 258.825 C 165.350 259.342,164.249 259.766,163.902 259.766 C 163.555 259.766,162.965 259.939,162.592 260.151 C 161.278 260.898,157.318 262.500,156.787 262.500 C 156.492 262.500,156.250 262.676,156.250 262.891 C 156.250 263.105,155.866 263.281,155.396 263.281 C 154.927 263.281,154.180 263.604,153.736 263.997 C 153.293 264.391,152.139 265.007,151.172 265.365 C 150.205 265.724,148.271 266.589,146.875 267.287 L 144.336 268.557 144.089 272.462 C 142.614 295.773,145.244 302.628,156.822 305.644 C 159.566 306.359,197.266 306.572,197.266 305.873 C 197.266 305.666,196.765 304.919,196.153 304.213 C 190.129 297.268,185.743 290.371,185.334 287.204 C 185.032 284.859,184.904 280.865,185.139 281.101 C 185.236 281.200,185.588 280.438,185.920 279.410 C 187.920 273.212,194.832 269.348,201.553 270.670 C 204.128 271.177,206.041 272.179,208.066 274.082 C 208.786 274.759,209.375 275.242,209.375 275.156 C 209.375 274.871,210.875 276.495,211.518 277.475 C 211.874 278.019,212.440 278.385,212.813 278.313 C 213.178 278.242,213.740 278.166,214.063 278.143 C 214.537 278.109,214.521 278.027,213.979 277.711 C 213.446 277.401,213.386 277.118,213.686 276.330 C 213.893 275.785,214.063 274.560,214.063 273.607 C 214.063 271.943,214.108 271.875,215.234 271.875 C 216.306 271.875,216.406 271.762,216.406 270.550 C 216.406 269.463,216.581 269.181,217.383 268.980 C 218.226 268.769,218.363 268.509,218.387 267.082 C 218.408 265.801,218.490 265.605,218.750 266.211 C 219.037 266.879,219.090 266.893,219.113 266.309 C 219.132 265.847,219.458 265.625,220.117 265.625 C 220.967 265.625,221.094 265.453,221.094 264.300 C 221.094 262.827,221.561 262.500,223.665 262.500 L 225.000 262.500 225.000 259.375 L 225.000 256.250 226.563 256.250 C 228.013 256.250,228.125 256.172,228.125 255.156 C 228.125 253.768,228.768 253.125,230.156 253.125 C 231.172 253.125,231.250 253.013,231.250 251.563 L 231.250 250.000 232.813 250.000 L 234.375 250.000 234.375 248.438 L 234.375 246.875 235.938 246.875 L 237.500 246.875 237.500 245.313 L 237.500 243.750 239.063 243.750 C 240.469 243.750,240.625 243.652,240.625 242.773 C 240.625 241.854,241.912 241.445,243.848 241.751 C 244.009 241.776,244.141 239.424,244.141 236.523 C 244.141 233.623,244.053 231.250,243.945 231.250 C 243.838 231.250,243.750 231.397,243.750 231.576 M123.125 234.063 C 122.867 234.320,122.677 234.892,122.702 235.332 C 122.746 236.117,122.751 236.117,122.939 235.352 C 123.045 234.922,123.309 234.351,123.527 234.082 C 124.033 233.459,123.742 233.445,123.125 234.063 M182.520 253.017 C 181.279 253.171,180.886 253.635,181.614 254.085 C 181.814 254.208,182.088 254.131,182.223 253.913 C 182.358 253.694,182.799 253.516,183.203 253.516 C 183.607 253.516,184.047 253.340,184.180 253.125 C 184.312 252.910,184.279 252.763,184.105 252.797 C 183.931 252.831,183.218 252.930,182.520 253.017 M181.250 257.825 C 181.250 258.406,180.192 258.726,179.395 258.386 C 178.805 258.136,178.845 258.055,179.688 257.798 C 181.085 257.371,181.250 257.374,181.250 257.825 M212.695 270.708 C 212.695 271.546,211.560 271.425,211.396 270.570 C 211.295 270.048,211.454 269.889,211.976 269.989 C 212.372 270.066,212.695 270.389,212.695 270.708 M212.221 274.213 C 212.334 274.646,212.289 275.000,212.121 275.000 C 211.581 275.000,210.861 273.877,211.126 273.448 C 211.468 272.895,211.968 273.244,212.221 274.213 M189.233 275.098 L 188.086 276.367 189.355 275.220 C 190.539 274.150,190.805 273.828,190.503 273.828 C 190.436 273.828,189.864 274.399,189.233 275.098 M234.375 276.355 C 234.375 276.704,234.604 276.841,234.961 276.704 C 235.283 276.580,235.547 276.322,235.547 276.130 C 235.547 275.938,235.283 275.781,234.961 275.781 C 234.639 275.781,234.375 276.039,234.375 276.355 M167.198 277.755 C 168.439 280.073,166.867 281.087,164.865 279.259 C 163.582 278.087,163.554 278.005,164.257 277.492 C 165.329 276.707,166.703 276.830,167.198 277.755 M177.266 284.304 C 177.046 285.465,175.000 285.405,175.000 284.238 C 175.000 283.705,175.220 283.189,175.488 283.093 C 176.268 282.814,177.402 283.586,177.266 284.304 " stroke="none" fill="#45057d" fill-rule="evenodd"></path><path id="path4" d="M168.607 88.327 C 169.280 89.054,170.108 90.176,170.447 90.820 C 170.785 91.465,171.070 91.749,171.078 91.452 C 171.104 90.572,169.598 88.414,168.450 87.684 C 167.410 87.023,167.414 87.039,168.607 88.327 M254.758 90.133 C 254.688 92.156,254.662 92.196,252.539 93.606 C 250.228 95.141,249.624 95.807,251.592 94.651 C 254.605 92.882,255.145 92.147,254.981 90.039 L 254.828 88.086 254.758 90.133 M214.950 90.234 C 214.950 91.201,215.026 91.597,215.119 91.113 C 215.213 90.630,215.213 89.839,215.119 89.355 C 215.026 88.872,214.950 89.268,214.950 90.234 M171.156 94.141 C 171.005 98.247,169.051 100.788,165.258 101.811 C 163.967 102.159,163.759 102.298,164.503 102.317 C 168.469 102.419,171.741 98.380,171.380 93.827 L 171.235 91.992 171.156 94.141 M213.779 93.284 C 212.957 93.889,214.263 93.742,216.016 93.032 C 216.958 92.650,216.948 92.639,215.732 92.705 C 215.039 92.743,214.160 93.003,213.779 93.284 M190.865 95.143 C 190.681 95.620,190.261 95.746,189.248 95.628 C 188.094 95.493,187.962 95.551,188.410 95.999 C 188.755 96.344,189.315 96.436,190.010 96.262 C 191.013 96.010,191.743 95.128,191.307 94.693 C 191.200 94.585,191.001 94.788,190.865 95.143 M210.992 95.716 C 210.485 96.139,210.255 96.484,210.481 96.484 C 210.707 96.484,211.002 96.306,211.137 96.087 C 211.272 95.869,211.573 95.808,211.806 95.952 C 212.047 96.101,212.119 96.034,211.972 95.797 C 211.830 95.567,211.935 95.290,212.205 95.181 C 212.474 95.073,212.520 94.976,212.305 94.966 C 212.090 94.956,211.499 95.294,210.992 95.716 M213.541 95.310 C 214.006 95.499,214.533 95.884,214.713 96.166 C 214.949 96.538,215.634 96.616,217.188 96.450 L 219.336 96.221 217.273 96.157 C 216.004 96.118,215.136 95.901,215.017 95.592 C 214.912 95.316,214.346 95.063,213.760 95.029 C 212.784 94.973,212.766 94.996,213.541 95.310 M211.435 98.438 C 211.435 99.404,211.511 99.800,211.604 99.316 C 211.697 98.833,211.697 98.042,211.604 97.559 C 211.511 97.075,211.435 97.471,211.435 98.438 M244.741 98.483 C 242.723 99.999,242.493 100.283,243.971 99.433 C 245.621 98.485,247.152 97.279,246.680 97.301 C 246.465 97.311,245.592 97.843,244.741 98.483 M157.422 100.339 C 157.422 100.846,160.757 102.349,161.812 102.318 C 162.381 102.301,162.101 102.106,161.025 101.770 C 160.106 101.483,158.920 100.963,158.388 100.615 C 157.857 100.267,157.422 100.142,157.422 100.339 M241.562 111.914 C 241.563 115.137,241.624 116.403,241.697 114.728 C 241.770 113.053,241.770 110.417,241.696 108.869 C 241.622 107.321,241.562 108.691,241.562 111.914 M248.596 119.979 C 252.475 122.548,254.827 127.096,254.610 131.606 C 254.468 134.560,255.286 134.001,242.866 139.629 C 238.191 141.747,234.439 143.554,234.528 143.643 C 234.618 143.732,236.997 142.738,239.815 141.434 C 242.634 140.130,245.024 139.063,245.128 139.063 C 245.232 139.063,247.513 138.007,250.197 136.718 L 255.078 134.373 255.078 131.711 C 255.078 128.555,254.300 125.777,252.820 123.651 C 251.679 122.012,247.928 118.750,247.184 118.750 C 246.940 118.750,247.576 119.303,248.596 119.979 M159.076 130.092 C 156.502 131.127,157.717 136.018,160.517 135.892 C 161.334 135.855,161.376 135.810,160.743 135.650 C 158.494 135.081,157.406 131.852,159.071 130.686 C 160.236 129.870,161.022 129.920,162.252 130.888 C 162.818 131.333,163.281 131.519,163.281 131.301 C 163.281 130.104,160.814 129.395,159.076 130.092 M136.088 143.292 C 139.226 147.286,133.826 152.329,130.119 148.867 C 129.452 148.243,128.906 147.876,128.906 148.051 C 128.906 148.225,129.447 148.823,130.108 149.379 C 134.185 152.809,139.945 147.109,136.284 143.268 L 135.068 141.992 136.088 143.292 M253.125 143.084 C 252.588 143.360,251.182 143.997,250.000 144.500 C 248.818 145.003,246.797 145.889,245.508 146.468 C 244.219 147.047,241.975 148.018,240.523 148.626 C 239.070 149.233,237.966 149.814,238.068 149.917 C 238.171 150.020,239.742 149.465,241.559 148.685 C 243.375 147.904,245.129 147.266,245.455 147.266 C 245.781 147.266,246.144 147.109,246.262 146.918 C 246.380 146.727,246.885 146.469,247.384 146.343 C 247.882 146.218,249.334 145.637,250.610 145.051 C 254.461 143.284,254.308 143.134,254.225 148.588 C 254.155 153.196,254.147 153.238,253.906 150.195 C 253.770 148.477,253.627 147.372,253.587 147.742 C 253.544 148.143,253.296 148.329,252.968 148.203 C 252.666 148.087,251.655 148.384,250.721 148.863 C 249.788 149.341,249.243 149.807,249.512 149.899 C 249.780 149.990,250.000 150.380,250.000 150.766 C 250.000 151.520,249.095 152.480,248.729 152.115 C 248.607 151.992,248.357 152.829,248.174 153.973 C 247.858 155.945,247.779 156.055,246.674 156.068 L 245.508 156.080 245.391 158.768 C 245.290 161.093,245.351 161.392,245.846 160.981 C 246.310 160.596,246.454 160.639,246.602 161.210 C 246.770 161.858,246.788 161.860,246.830 161.230 C 246.879 160.484,247.467 160.316,247.852 160.938 C 247.984 161.152,248.742 161.325,249.535 161.322 C 250.577 161.318,250.817 161.216,250.402 160.953 C 249.761 160.547,250.723 159.942,251.563 160.222 C 252.302 160.468,251.048 161.722,249.844 161.940 C 249.222 162.053,248.376 162.382,247.964 162.670 C 247.552 162.959,246.831 163.111,246.361 163.009 C 245.718 162.869,245.643 162.918,246.054 163.209 C 246.612 163.603,246.051 163.905,236.523 168.353 C 234.590 169.255,232.217 170.313,231.250 170.703 C 228.401 171.851,222.036 174.950,222.470 174.976 C 222.690 174.989,226.821 173.228,231.650 171.063 C 236.479 168.897,242.275 166.334,244.531 165.366 C 246.787 164.399,248.984 163.390,249.414 163.125 C 249.844 162.860,251.206 162.239,252.441 161.745 L 254.688 160.847 254.762 153.568 C 254.803 149.565,254.847 145.513,254.860 144.563 C 254.886 142.636,254.552 142.352,253.125 143.084 M228.711 145.928 C 226.133 147.079,223.171 148.391,222.130 148.843 C 221.089 149.294,220.314 149.741,220.408 149.835 C 220.558 149.985,221.632 149.547,227.148 147.082 C 227.793 146.794,229.463 146.086,230.859 145.509 C 233.232 144.527,234.646 143.693,233.770 143.792 C 233.565 143.814,231.289 144.776,228.711 145.928 M209.766 146.502 C 209.331 146.796,209.457 146.834,210.254 146.649 C 212.001 146.243,213.275 146.774,213.876 148.158 C 214.270 149.064,214.425 149.196,214.432 148.633 C 214.455 146.691,211.489 145.336,209.766 146.502 M204.102 148.958 C 201.738 150.089,197.209 152.131,194.037 153.495 C 190.864 154.860,188.331 156.039,188.407 156.116 C 188.582 156.290,199.621 151.511,205.078 148.899 C 207.334 147.819,209.004 146.928,208.789 146.919 C 208.574 146.910,206.465 147.828,204.102 148.958 M253.516 149.609 C 253.516 149.824,252.900 150.000,252.148 150.000 C 251.396 150.000,250.781 149.824,250.781 149.609 C 250.781 149.395,251.396 149.219,252.148 149.219 C 252.900 149.219,253.516 149.395,253.516 149.609 M216.992 151.186 C 214.090 152.589,214.000 152.592,214.253 151.270 C 214.366 150.679,214.346 150.459,214.209 150.781 C 214.072 151.104,213.690 151.678,213.360 152.057 C 212.408 153.149,215.053 152.651,217.840 151.212 C 220.751 149.711,220.087 149.690,216.992 151.186 M234.570 151.209 C 233.066 151.858,231.660 152.569,231.445 152.789 C 231.230 153.008,232.109 152.718,233.398 152.145 C 234.687 151.572,236.138 150.947,236.621 150.756 C 237.104 150.566,237.500 150.318,237.500 150.205 C 237.500 149.930,237.656 149.876,234.570 151.209 M181.445 158.945 C 178.008 160.411,171.855 163.048,167.773 164.806 C 163.691 166.565,158.647 168.737,156.563 169.633 C 154.479 170.530,152.842 171.332,152.925 171.415 C 153.009 171.498,159.108 168.969,166.480 165.796 C 173.851 162.622,181.553 159.333,183.594 158.488 C 186.691 157.205,188.626 156.199,187.871 156.265 C 187.774 156.274,184.883 157.480,181.445 158.945 M221.094 157.227 C 220.557 157.534,220.293 157.785,220.508 157.785 C 220.723 157.785,221.338 157.534,221.875 157.227 C 222.412 156.920,222.676 156.668,222.461 156.668 C 222.246 156.668,221.631 156.920,221.094 157.227 M213.678 160.005 C 213.673 160.678,212.768 161.256,208.807 163.116 C 206.132 164.373,203.995 165.454,204.060 165.518 C 204.225 165.683,206.692 164.625,210.319 162.834 C 212.687 161.664,213.491 161.422,213.733 161.805 C 213.954 162.153,214.052 162.057,214.057 161.485 C 214.060 161.035,214.458 160.458,214.941 160.204 C 215.558 159.879,215.597 159.807,215.070 159.962 C 214.658 160.083,214.177 159.957,214.002 159.681 C 213.780 159.331,213.682 159.429,213.678 160.005 M253.516 160.156 C 253.516 160.371,253.252 160.547,252.930 160.547 C 252.607 160.547,252.344 160.371,252.344 160.156 C 252.344 159.941,252.607 159.766,252.930 159.766 C 253.252 159.766,253.516 159.941,253.516 160.156 M213.730 164.570 C 213.646 165.579,212.403 167.858,212.224 167.330 C 212.125 167.037,211.651 166.988,210.822 167.187 C 208.683 167.698,207.364 168.341,207.617 168.749 C 207.761 168.983,207.297 169.141,206.468 169.141 C 205.599 169.141,205.115 169.315,205.176 169.606 C 205.229 169.862,204.922 170.132,204.492 170.207 C 202.263 170.595,201.953 170.752,201.953 171.492 C 201.953 171.957,202.226 172.278,202.637 172.296 C 203.362 172.329,203.414 172.299,201.185 173.125 C 200.485 173.385,200.361 173.568,200.730 173.796 C 201.128 174.043,201.105 174.161,200.619 174.347 C 200.278 174.478,200.000 174.404,200.000 174.183 C 200.000 173.956,199.788 173.917,199.512 174.094 C 198.442 174.778,195.534 174.556,194.629 173.721 C 193.900 173.049,193.750 173.017,193.750 173.536 C 193.750 174.209,195.314 175.605,196.483 175.976 C 197.157 176.190,199.388 175.340,208.504 171.397 C 213.084 169.415,214.388 167.883,213.956 164.989 C 213.864 164.372,213.763 164.184,213.730 164.570 M198.876 167.529 C 195.261 169.147,193.749 170.276,193.751 171.357 C 193.752 171.859,193.986 171.689,194.536 170.785 C 195.001 170.023,195.994 169.207,196.976 168.780 C 200.594 167.207,202.910 166.079,202.539 166.072 C 202.324 166.067,200.676 166.723,198.876 167.529 M210.328 169.884 C 210.552 170.246,208.219 171.240,207.898 170.919 C 207.800 170.821,208.179 170.626,208.740 170.485 C 209.301 170.344,209.663 170.072,209.545 169.880 C 209.426 169.688,209.505 169.531,209.720 169.531 C 209.934 169.531,210.208 169.690,210.328 169.884 M128.613 170.929 C 128.989 171.376,129.297 171.937,129.297 172.176 C 129.297 172.415,129.456 172.709,129.651 172.829 C 130.357 173.266,129.588 171.516,128.770 170.826 C 127.937 170.123,127.936 170.124,128.613 170.929 M149.219 172.852 C 148.682 173.159,148.418 173.410,148.633 173.410 C 148.848 173.410,149.463 173.159,150.000 172.852 C 150.537 172.545,150.801 172.293,150.586 172.293 C 150.371 172.293,149.756 172.545,149.219 172.852 M129.124 174.147 C 128.757 175.303,126.784 176.000,125.471 175.439 C 124.488 175.019,124.467 175.029,125.172 175.580 C 126.673 176.752,130.835 174.846,129.560 173.570 C 129.454 173.465,129.258 173.725,129.124 174.147 M243.359 174.137 C 243.037 174.238,242.510 174.541,242.188 174.810 C 241.865 175.079,240.503 175.695,239.160 176.179 C 236.468 177.148,236.032 177.734,238.003 177.734 C 239.018 177.734,239.300 177.902,239.347 178.537 C 239.410 179.374,238.114 180.135,237.210 179.791 C 236.944 179.689,236.617 179.888,236.485 180.233 C 236.353 180.577,235.882 180.859,235.440 180.859 C 234.997 180.859,234.755 180.979,234.902 181.126 C 235.259 181.483,231.679 183.195,230.566 183.200 C 229.048 183.206,229.609 182.534,231.525 182.052 C 232.889 181.708,233.216 181.497,232.794 181.230 C 232.368 180.961,232.495 180.870,233.301 180.865 C 234.458 180.859,234.650 180.510,233.906 179.766 C 233.542 179.401,233.542 179.297,233.906 179.297 C 234.164 179.297,234.375 179.500,234.375 179.748 C 234.375 180.004,234.713 179.893,235.156 179.492 C 236.695 178.099,235.542 177.637,233.119 178.675 C 232.413 178.977,230.693 179.699,229.297 180.279 C 227.900 180.859,225.803 181.775,224.636 182.314 C 223.469 182.852,222.327 183.330,222.097 183.374 C 221.868 183.419,220.999 183.750,220.167 184.111 C 219.335 184.471,218.586 184.766,218.503 184.766 C 218.419 184.766,217.606 185.103,216.695 185.516 C 212.975 187.202,211.144 186.578,210.152 183.285 C 209.892 182.422,209.827 182.378,209.799 183.047 C 209.781 183.498,210.381 185.026,211.133 186.443 C 212.917 189.805,213.133 189.426,208.105 191.774 C 203.538 193.908,198.385 196.469,198.047 196.775 C 197.939 196.872,198.291 196.914,198.828 196.870 C 200.737 196.711,201.172 196.863,201.172 197.687 C 201.172 198.381,201.006 198.463,200.037 198.250 C 199.413 198.113,198.800 198.167,198.675 198.369 C 198.397 198.820,199.881 200.776,200.517 200.795 C 201.150 200.815,203.439 202.730,202.832 202.732 C 202.563 202.734,201.987 203.091,201.550 203.528 C 201.114 203.964,200.239 204.425,199.606 204.551 C 198.973 204.678,198.254 205.024,198.008 205.320 C 197.468 205.970,199.177 205.415,202.930 203.719 C 204.219 203.137,208.350 201.349,212.109 199.748 C 215.869 198.146,219.648 196.520,220.508 196.135 C 221.367 195.749,224.004 194.627,226.367 193.640 C 228.730 192.654,233.389 190.679,236.719 189.251 C 245.218 185.608,244.531 185.597,244.531 189.376 C 244.531 192.603,244.316 193.750,243.710 193.750 C 243.519 193.750,239.978 195.308,235.841 197.212 C 227.861 200.885,220.465 204.169,217.600 205.312 C 216.646 205.693,216.036 206.062,216.246 206.131 C 216.642 206.264,232.163 199.607,240.172 195.869 C 241.748 195.133,243.171 194.531,243.334 194.531 C 244.795 194.531,245.023 193.117,244.730 185.854 C 244.331 175.944,244.092 173.907,243.359 174.137 M217.073 176.885 C 212.581 178.831,210.152 180.474,210.163 181.560 C 210.167 182.009,210.424 181.830,210.950 181.009 C 211.681 179.867,215.682 177.692,219.336 176.448 C 220.588 176.022,222.302 174.980,221.669 175.030 C 221.460 175.046,219.392 175.881,217.073 176.885 M242.796 177.161 C 241.965 177.789,241.016 177.922,241.016 177.409 C 241.016 176.833,241.512 176.562,242.546 176.575 C 243.517 176.587,243.527 176.609,242.796 177.161 M269.434 177.734 C 271.349 179.881,268.243 183.001,265.720 181.465 L 264.648 180.813 265.610 181.650 C 266.698 182.596,268.386 182.482,269.603 181.380 C 270.519 180.551,270.534 178.389,269.629 177.703 C 269.047 177.263,269.018 177.268,269.434 177.734 M151.758 188.298 C 150.898 188.726,150.547 188.962,150.977 188.823 C 151.406 188.685,152.153 188.486,152.637 188.381 C 153.120 188.276,153.516 188.035,153.516 187.845 C 153.516 187.405,153.592 187.385,151.758 188.298 M148.047 189.844 C 147.295 190.255,146.855 190.592,147.070 190.592 C 147.285 190.592,148.076 190.255,148.828 189.844 C 149.580 189.432,150.020 189.095,149.805 189.095 C 149.590 189.095,148.799 189.432,148.047 189.844 M142.188 192.383 C 141.650 192.690,141.387 192.941,141.602 192.941 C 141.816 192.941,142.432 192.690,142.969 192.383 C 143.506 192.076,143.770 191.825,143.555 191.825 C 143.340 191.825,142.725 192.076,142.188 192.383 M153.622 193.750 C 153.622 194.717,153.698 195.112,153.791 194.629 C 153.884 194.146,153.884 193.354,153.791 192.871 C 153.698 192.388,153.622 192.783,153.622 193.750 M137.764 194.967 C 136.952 195.636,136.365 196.261,136.459 196.355 C 136.553 196.449,137.309 195.902,138.139 195.140 C 140.003 193.428,139.764 193.318,137.764 194.967 M134.834 196.582 C 134.761 198.565,135.250 198.994,135.945 197.559 C 136.344 196.736,136.334 196.726,135.788 197.404 C 135.247 198.078,135.194 198.008,135.054 196.428 L 134.902 194.727 134.834 196.582 M171.301 199.430 C 171.951 199.751,172.782 200.494,173.146 201.081 C 173.601 201.816,173.811 201.946,173.818 201.500 C 173.830 200.709,171.675 198.825,170.771 198.837 C 170.386 198.842,170.605 199.087,171.301 199.430 M163.672 200.586 C 163.135 200.893,162.871 201.144,163.086 201.144 C 163.301 201.144,163.916 200.893,164.453 200.586 C 164.990 200.279,165.254 200.028,165.039 200.028 C 164.824 200.028,164.209 200.279,163.672 200.586 M203.516 200.293 C 203.516 200.454,203.076 200.586,202.539 200.586 C 202.002 200.586,201.563 200.454,201.563 200.293 C 201.563 200.132,202.002 200.000,202.539 200.000 C 203.076 200.000,203.516 200.132,203.516 200.293 M160.547 201.953 C 159.795 202.365,159.355 202.702,159.570 202.702 C 159.785 202.702,160.576 202.365,161.328 201.953 C 162.080 201.541,162.520 201.205,162.305 201.205 C 162.090 201.205,161.299 201.541,160.547 201.953 M240.625 203.717 C 237.110 205.281,236.632 205.489,228.906 208.815 C 213.787 215.325,213.721 215.344,212.079 213.702 C 210.028 211.650,210.876 209.048,214.137 207.384 C 214.997 206.945,215.613 206.498,215.505 206.391 C 214.458 205.343,210.547 209.256,210.547 211.351 C 210.547 215.488,213.432 216.156,219.712 213.474 C 221.980 212.505,224.141 211.653,224.515 211.581 C 225.259 211.437,228.703 209.995,229.770 209.381 C 230.556 208.929,231.737 209.281,231.529 209.906 C 231.449 210.144,230.827 210.500,230.145 210.695 C 228.763 211.092,228.482 211.719,229.688 211.719 C 230.117 211.719,230.469 211.561,230.469 211.367 C 230.469 211.174,231.093 211.016,231.856 211.016 C 232.619 211.016,233.767 210.799,234.408 210.533 C 235.048 210.268,235.698 210.177,235.852 210.331 C 236.118 210.597,235.149 211.503,234.222 211.855 C 233.966 211.952,234.109 212.275,234.570 212.643 C 235.520 213.401,234.760 214.180,233.313 213.933 C 232.836 213.851,232.537 213.933,232.649 214.114 C 232.840 214.423,226.545 217.594,222.656 219.148 C 221.689 219.534,219.629 220.481,218.077 221.253 C 216.526 222.025,215.177 222.656,215.080 222.656 C 214.983 222.656,213.001 223.558,210.675 224.660 C 204.486 227.591,196.354 231.250,196.028 231.250 C 195.748 231.250,190.091 233.801,182.611 237.300 C 180.466 238.303,177.041 239.836,175.000 240.706 C 172.959 241.575,170.186 242.792,168.838 243.409 C 167.490 244.026,166.314 244.531,166.226 244.531 C 166.137 244.531,163.900 245.562,161.255 246.822 C 158.610 248.081,155.778 249.328,154.962 249.592 L 153.479 250.073 153.745 251.851 C 153.892 252.829,154.032 253.911,154.057 254.256 C 154.119 255.132,144.966 259.690,144.153 259.188 C 143.932 259.050,143.750 259.212,143.750 259.547 C 143.750 260.458,144.138 260.343,148.921 258.019 C 151.341 256.844,158.594 253.575,165.039 250.755 C 171.484 247.936,179.043 244.607,181.836 243.357 C 184.629 242.108,188.145 240.561,189.648 239.919 C 193.855 238.122,213.295 229.446,216.187 228.074 C 217.033 227.672,217.956 227.344,218.237 227.344 C 218.519 227.344,218.750 227.168,218.750 226.953 C 218.750 226.738,218.939 226.563,219.169 226.563 C 219.400 226.563,221.465 225.669,223.759 224.577 C 226.053 223.485,228.984 222.189,230.273 221.697 C 231.562 221.205,234.287 220.016,236.328 219.056 C 238.369 218.095,240.969 216.886,242.105 216.369 L 244.171 215.430 244.195 213.281 C 244.209 212.100,244.301 209.155,244.400 206.738 C 244.608 201.649,244.846 201.839,240.625 203.717 M154.883 204.497 C 152.949 205.430,151.543 206.198,151.758 206.202 C 151.973 206.207,153.730 205.443,155.664 204.507 C 157.598 203.570,159.004 202.802,158.789 202.801 C 158.574 202.800,156.816 203.563,154.883 204.497 M171.292 204.447 C 170.004 205.117,168.862 205.762,168.753 205.882 C 168.644 206.001,167.939 206.334,167.188 206.622 C 162.737 208.324,154.786 211.898,154.236 212.444 C 153.736 212.939,153.548 214.068,153.414 217.383 C 153.319 219.746,153.312 220.843,153.399 219.820 C 153.591 217.552,153.621 217.530,160.697 214.459 C 171.000 209.987,172.692 208.777,173.426 205.351 C 173.944 202.935,174.086 202.995,171.292 204.447 M268.359 205.051 C 268.359 205.251,267.964 205.498,267.480 205.601 C 266.867 205.732,266.947 205.769,267.743 205.726 C 268.784 205.670,269.767 204.688,268.783 204.688 C 268.550 204.688,268.359 204.851,268.359 205.051 M147.070 207.999 C 145.996 208.505,145.293 208.923,145.508 208.928 C 145.723 208.933,146.777 208.522,147.852 208.016 C 148.926 207.510,149.629 207.092,149.414 207.088 C 149.199 207.083,148.145 207.493,147.070 207.999 M134.900 211.133 C 134.901 212.852,134.970 213.506,135.052 212.587 C 135.135 211.669,135.134 210.262,135.050 209.462 C 134.966 208.662,134.898 209.414,134.900 211.133 M141.292 210.623 C 139.150 211.786,135.547 215.729,135.547 216.912 C 135.547 217.148,136.047 216.559,136.659 215.604 C 138.181 213.227,139.693 211.808,141.892 210.694 C 142.914 210.176,143.750 209.668,143.750 209.564 C 143.750 209.289,143.758 209.286,141.292 210.623 M230.642 212.273 C 229.786 212.898,229.866 213.059,231.247 213.484 C 232.108 213.750,232.161 213.713,231.702 213.159 C 231.416 212.816,231.296 212.351,231.435 212.126 C 231.778 211.571,231.542 211.615,230.642 212.273 M241.554 212.677 C 241.251 213.468,238.814 214.844,237.718 214.844 C 237.217 214.844,236.317 215.098,235.717 215.410 C 235.117 215.721,234.449 215.866,234.231 215.732 C 234.014 215.597,234.265 215.309,234.789 215.091 C 235.313 214.872,236.621 214.271,237.695 213.755 C 238.770 213.238,240.088 212.672,240.625 212.496 C 241.162 212.320,241.640 212.161,241.687 212.143 C 241.734 212.124,241.674 212.365,241.554 212.677 M134.793 216.439 C 134.808 216.958,134.980 217.734,135.174 218.164 C 135.421 218.709,135.456 218.472,135.291 217.383 C 135.014 215.569,134.753 215.074,134.793 216.439 M192.157 216.767 C 188.442 220.482,193.829 225.745,197.788 222.269 C 200.264 220.095,199.079 215.624,196.026 215.626 C 195.249 215.626,195.315 215.725,196.484 216.309 C 197.938 217.036,199.310 219.175,198.496 219.447 C 198.249 219.529,198.047 219.749,198.047 219.937 C 198.047 220.397,196.152 222.266,195.685 222.266 C 195.480 222.266,195.313 222.002,195.313 221.680 C 195.313 221.357,195.137 221.094,194.922 221.094 C 194.707 221.094,194.531 221.357,194.531 221.680 C 194.531 222.598,193.417 222.368,192.364 221.232 C 190.814 219.559,191.229 217.761,193.482 216.387 C 194.371 215.845,194.523 215.628,194.013 215.626 C 193.620 215.626,192.785 216.139,192.157 216.767 M233.508 216.467 C 233.426 216.715,232.457 217.200,231.356 217.545 C 230.255 217.890,229.224 218.302,229.065 218.461 C 228.691 218.836,228.124 218.833,228.128 218.457 C 228.131 218.133,229.548 217.373,231.641 216.573 C 233.352 215.918,233.698 215.899,233.508 216.467 M269.593 224.943 C 270.452 226.679,270.305 227.827,269.017 229.442 C 267.397 231.475,262.985 231.050,262.269 228.792 C 262.142 228.393,261.952 228.152,261.847 228.257 C 260.928 229.176,264.039 231.250,266.334 231.250 C 270.044 231.250,272.114 226.134,269.337 223.829 C 269.061 223.600,269.177 224.102,269.593 224.943 M153.043 224.991 C 152.914 225.873,152.987 226.058,153.349 225.757 C 153.611 225.540,153.735 225.017,153.625 224.595 C 153.353 223.553,153.243 223.627,153.043 224.991 M168.010 227.305 C 164.685 230.411,168.622 236.044,172.582 233.847 C 174.459 232.805,175.695 229.339,174.701 227.907 C 173.297 225.885,169.861 225.576,168.010 227.305 M173.061 227.249 C 174.565 228.283,174.595 230.374,173.129 231.944 C 172.288 232.843,171.876 233.048,171.553 232.725 C 171.230 232.402,170.863 232.402,170.159 232.723 C 169.334 233.098,169.064 233.020,168.195 232.151 C 165.257 229.213,169.582 224.857,173.061 227.249 M125.757 234.508 C 126.299 235.932,125.457 236.912,123.987 236.569 C 123.156 236.375,123.009 236.411,123.438 236.701 C 124.364 237.328,125.299 237.177,125.911 236.303 C 126.475 235.498,126.383 234.161,125.735 233.761 C 125.547 233.644,125.557 233.980,125.757 234.508 M143.871 256.445 C 143.873 257.734,143.946 258.215,144.033 257.513 C 144.120 256.810,144.118 255.756,144.029 255.169 C 143.940 254.582,143.869 255.156,143.871 256.445 M206.169 273.724 C 214.037 279.545,212.387 292.493,203.357 295.795 C 202.016 296.285,201.275 296.723,201.660 296.799 C 202.447 296.953,206.058 295.311,207.257 294.254 C 212.390 289.729,213.198 281.303,209.024 275.811 C 207.980 274.436,205.258 272.266,204.579 272.266 C 204.370 272.266,205.085 272.922,206.169 273.724 M201.184 279.004 C 205.157 281.011,205.913 285.398,202.771 288.211 C 199.896 290.785,195.691 290.201,193.711 286.955 C 193.304 286.288,192.971 285.985,192.970 286.282 C 192.963 288.787,198.205 291.046,201.298 289.870 C 206.659 287.832,205.616 278.125,200.034 278.125 C 199.710 278.125,200.227 278.521,201.184 279.004 M192.822 282.632 C 192.688 282.981,192.600 283.824,192.627 284.505 C 192.668 285.534,192.725 285.447,192.968 283.984 C 193.278 282.116,193.222 281.590,192.822 282.632 M188.620 292.423 C 190.030 294.547,193.804 296.936,195.593 296.836 C 195.976 296.815,195.521 296.557,194.583 296.262 C 192.764 295.691,190.798 294.344,188.952 292.405 L 187.815 291.211 188.620 292.423 M197.754 297.155 C 198.345 297.244,199.312 297.244,199.902 297.155 C 200.493 297.065,200.010 296.992,198.828 296.992 C 197.646 296.992,197.163 297.065,197.754 297.155 " stroke="none" fill="#6c0739" fill-rule="evenodd"></path></g></svg>